<svg xmlns="http://www.w3.org/2000/svg" version="1.1" xmlns:xlink="http://www.w3.org/1999/xlink" xmlns:svgjs="http://svgjs.com/svgjs" width="690" height="1000" preserveAspectRatio="none" viewBox="0 0 690 1000"><g mask="url(&quot;#SvgjsMask1509&quot;)" fill="none"><rect width="690" height="1000" x="0" y="0" fill="url(#SvgjsLinearGradient1510)"></rect><path d="M-89.37 702.95L-89.37 702.95" stroke="#132e65" stroke-width="1.5"></path><path d="M-89.37 702.95L-92.55 835.66" stroke="#132e65" stroke-width="1.5"></path><path d="M-89.37 702.95L80.22 665.59" stroke="#132e65" stroke-width="1.5"></path><path d="M-89.37 702.95L-68.61 916.65" stroke="#132e65" stroke-width="1.5"></path><path d="M-89.37 702.95L170.64 822.73" stroke="#132e65" stroke-width="1.5"></path><path d="M-89.37 702.95L77.09 955.01" stroke="#132e65" stroke-width="1.5"></path><path d="M-92.55 835.66L-92.55 835.66" stroke="#132e65" stroke-width="1.5"></path><path d="M-92.55 835.66L-68.61 916.65" stroke="#132e65" stroke-width="1.5"></path><path d="M-68.61 916.65L-68.61 916.65" stroke="#132e65" stroke-width="1.5"></path><path d="M-68.61 916.65L77.09 955.01" stroke="#132e65" stroke-width="1.5"></path><path d="M-68.61 916.65L-35.29 1075.85" stroke="#132e65" stroke-width="1.5"></path><path d="M-35.29 1075.85L-35.29 1075.85" stroke="#132e65" stroke-width="1.5"></path><path d="M-35.29 1075.85L56.47 1065.55" stroke="#132e65" stroke-width="1.5"></path><path d="M80.22 665.59L80.22 665.59" stroke="#132e65" stroke-width="1.5"></path><path d="M80.22 665.59L215.59 662.45" stroke="#132e65" stroke-width="1.5"></path><path d="M77.09 955.01L77.09 955.01" stroke="#132e65" stroke-width="1.5"></path><path d="M77.09 955.01L56.47 1065.55" stroke="#132e65" stroke-width="1.5"></path><path d="M77.09 955.01L195.88 917.81" stroke="#132e65" stroke-width="1.5"></path><path d="M56.47 1065.55L56.47 1065.55" stroke="#132e65" stroke-width="1.5"></path><path d="M56.47 1065.55L188.59 1065.23" stroke="#132e65" stroke-width="1.5"></path><path d="M56.47 1065.55L-68.61 916.65" stroke="#132e65" stroke-width="1.5"></path><path d="M56.47 1065.55L195.88 917.81" stroke="#132e65" stroke-width="1.5"></path><path d="M215.59 662.45L215.59 662.45" stroke="#132e65" stroke-width="1.5"></path><path d="M215.59 662.45L303.47 542.55" stroke="#132e65" stroke-width="1.5"></path><path d="M170.64 822.73L170.64 822.73" stroke="#132e65" stroke-width="1.5"></path><path d="M170.64 822.73L195.88 917.81" stroke="#132e65" stroke-width="1.5"></path><path d="M170.64 822.73L300.39 796.96" stroke="#132e65" stroke-width="1.5"></path><path d="M195.88 917.81L195.88 917.81" stroke="#132e65" stroke-width="1.5"></path><path d="M195.88 917.81L309.62 935.87" stroke="#132e65" stroke-width="1.5"></path><path d="M195.88 917.81L188.59 1065.23" stroke="#132e65" stroke-width="1.5"></path><path d="M195.88 917.81L300.39 796.96" stroke="#132e65" stroke-width="1.5"></path><path d="M195.88 917.81L323.37 1068.82" stroke="#132e65" stroke-width="1.5"></path><path d="M188.59 1065.23L188.59 1065.23" stroke="#132e65" stroke-width="1.5"></path><path d="M188.59 1065.23L323.37 1068.82" stroke="#132e65" stroke-width="1.5"></path><path d="M188.59 1065.23L77.09 955.01" stroke="#132e65" stroke-width="1.5"></path><path d="M188.59 1065.23L309.62 935.87" stroke="#132e65" stroke-width="1.5"></path><path d="M293.41 460.3L293.41 460.3" stroke="#132e65" stroke-width="1.5"></path><path d="M293.41 460.3L303.47 542.55" stroke="#132e65" stroke-width="1.5"></path><path d="M293.41 460.3L428.56 451.73" stroke="#132e65" stroke-width="1.5"></path><path d="M293.41 460.3L414.51 572.54" stroke="#132e65" stroke-width="1.5"></path><path d="M293.41 460.3L455.26 320.08" stroke="#132e65" stroke-width="1.5"></path><path d="M293.41 460.3L215.59 662.45" stroke="#132e65" stroke-width="1.5"></path><path d="M303.47 542.55L303.47 542.55" stroke="#132e65" stroke-width="1.5"></path><path d="M303.47 542.55L414.51 572.54" stroke="#132e65" stroke-width="1.5"></path><path d="M303.47 542.55L428.56 451.73" stroke="#132e65" stroke-width="1.5"></path><path d="M300.39 796.96L300.39 796.96" stroke="#132e65" stroke-width="1.5"></path><path d="M300.39 796.96L414 782.57" stroke="#132e65" stroke-width="1.5"></path><path d="M300.39 796.96L309.62 935.87" stroke="#132e65" stroke-width="1.5"></path><path d="M300.39 796.96L215.59 662.45" stroke="#132e65" stroke-width="1.5"></path><path d="M300.39 796.96L432.7 955.29" stroke="#132e65" stroke-width="1.5"></path><path d="M309.62 935.87L309.62 935.87" stroke="#132e65" stroke-width="1.5"></path><path d="M309.62 935.87L432.7 955.29" stroke="#132e65" stroke-width="1.5"></path><path d="M309.62 935.87L323.37 1068.82" stroke="#132e65" stroke-width="1.5"></path><path d="M323.37 1068.82L323.37 1068.82" stroke="#132e65" stroke-width="1.5"></path><path d="M323.37 1068.82L437.17 1059.36" stroke="#132e65" stroke-width="1.5"></path><path d="M323.37 1068.82L432.7 955.29" stroke="#132e65" stroke-width="1.5"></path><path d="M441.87 -31.38L441.87 -31.38" stroke="#132e65" stroke-width="1.5"></path><path d="M441.87 -31.38L549.34 -68.3" stroke="#132e65" stroke-width="1.5"></path><path d="M441.87 -31.38L553.92 50.01" stroke="#132e65" stroke-width="1.5"></path><path d="M441.87 -31.38L410.96 169.99" stroke="#132e65" stroke-width="1.5"></path><path d="M410.96 169.99L410.96 169.99" stroke="#132e65" stroke-width="1.5"></path><path d="M410.96 169.99L549.78 167.55" stroke="#132e65" stroke-width="1.5"></path><path d="M410.96 169.99L455.26 320.08" stroke="#132e65" stroke-width="1.5"></path><path d="M410.96 169.99L553.92 50.01" stroke="#132e65" stroke-width="1.5"></path><path d="M455.26 320.08L455.26 320.08" stroke="#132e65" stroke-width="1.5"></path><path d="M455.26 320.08L428.56 451.73" stroke="#132e65" stroke-width="1.5"></path><path d="M455.26 320.08L576.22 414.76" stroke="#132e65" stroke-width="1.5"></path><path d="M455.26 320.08L549.78 167.55" stroke="#132e65" stroke-width="1.5"></path><path d="M455.26 320.08L680.54 343.66" stroke="#132e65" stroke-width="1.5"></path><path d="M428.56 451.73L428.56 451.73" stroke="#132e65" stroke-width="1.5"></path><path d="M428.56 451.73L414.51 572.54" stroke="#132e65" stroke-width="1.5"></path><path d="M428.56 451.73L576.22 414.76" stroke="#132e65" stroke-width="1.5"></path><path d="M428.56 451.73L578.69 546.76" stroke="#132e65" stroke-width="1.5"></path><path d="M414.51 572.54L414.51 572.54" stroke="#132e65" stroke-width="1.5"></path><path d="M414.51 572.54L538.16 659.88" stroke="#132e65" stroke-width="1.5"></path><path d="M414.51 572.54L578.69 546.76" stroke="#132e65" stroke-width="1.5"></path><path d="M414 782.57L414 782.57" stroke="#132e65" stroke-width="1.5"></path><path d="M414 782.57L562.55 784.63" stroke="#132e65" stroke-width="1.5"></path><path d="M414 782.57L432.7 955.29" stroke="#132e65" stroke-width="1.5"></path><path d="M414 782.57L538.16 659.88" stroke="#132e65" stroke-width="1.5"></path><path d="M414 782.57L309.62 935.87" stroke="#132e65" stroke-width="1.5"></path><path d="M414 782.57L414.51 572.54" stroke="#132e65" stroke-width="1.5"></path><path d="M432.7 955.29L432.7 955.29" stroke="#132e65" stroke-width="1.5"></path><path d="M432.7 955.29L437.17 1059.36" stroke="#132e65" stroke-width="1.5"></path><path d="M437.17 1059.36L437.17 1059.36" stroke="#132e65" stroke-width="1.5"></path><path d="M437.17 1059.36L554.14 1085.3" stroke="#132e65" stroke-width="1.5"></path><path d="M437.17 1059.36L309.62 935.87" stroke="#132e65" stroke-width="1.5"></path><path d="M549.34 -68.3L549.34 -68.3" stroke="#132e65" stroke-width="1.5"></path><path d="M549.34 -68.3L553.92 50.01" stroke="#132e65" stroke-width="1.5"></path><path d="M549.34 -68.3L706.65 -54.97" stroke="#132e65" stroke-width="1.5"></path><path d="M549.34 -68.3L703.95 52.8" stroke="#132e65" stroke-width="1.5"></path><path d="M553.92 50.01L553.92 50.01" stroke="#132e65" stroke-width="1.5"></path><path d="M553.92 50.01L549.78 167.55" stroke="#132e65" stroke-width="1.5"></path><path d="M549.78 167.55L549.78 167.55" stroke="#132e65" stroke-width="1.5"></path><path d="M549.78 167.55L703.22 159.03" stroke="#132e65" stroke-width="1.5"></path><path d="M576.22 414.76L576.22 414.76" stroke="#132e65" stroke-width="1.5"></path><path d="M576.22 414.76L680.54 343.66" stroke="#132e65" stroke-width="1.5"></path><path d="M576.22 414.76L578.69 546.76" stroke="#132e65" stroke-width="1.5"></path><path d="M576.22 414.76L705.31 449.35" stroke="#132e65" stroke-width="1.5"></path><path d="M578.69 546.76L578.69 546.76" stroke="#132e65" stroke-width="1.5"></path><path d="M578.69 546.76L538.16 659.88" stroke="#132e65" stroke-width="1.5"></path><path d="M578.69 546.76L705.31 449.35" stroke="#132e65" stroke-width="1.5"></path><path d="M538.16 659.88L538.16 659.88" stroke="#132e65" stroke-width="1.5"></path><path d="M538.16 659.88L562.55 784.63" stroke="#132e65" stroke-width="1.5"></path><path d="M562.55 784.63L562.55 784.63" stroke="#132e65" stroke-width="1.5"></path><path d="M562.55 784.63L676.96 789.86" stroke="#132e65" stroke-width="1.5"></path><path d="M562.55 784.63L572.31 922.9" stroke="#132e65" stroke-width="1.5"></path><path d="M572.31 922.9L572.31 922.9" stroke="#132e65" stroke-width="1.5"></path><path d="M572.31 922.9L697.68 926.15" stroke="#132e65" stroke-width="1.5"></path><path d="M572.31 922.9L432.7 955.29" stroke="#132e65" stroke-width="1.5"></path><path d="M572.31 922.9L660.72 1040.69" stroke="#132e65" stroke-width="1.5"></path><path d="M572.31 922.9L554.14 1085.3" stroke="#132e65" stroke-width="1.5"></path><path d="M572.31 922.9L676.96 789.86" stroke="#132e65" stroke-width="1.5"></path><path d="M554.14 1085.3L554.14 1085.3" stroke="#132e65" stroke-width="1.5"></path><path d="M554.14 1085.3L660.72 1040.69" stroke="#132e65" stroke-width="1.5"></path><path d="M554.14 1085.3L432.7 955.29" stroke="#132e65" stroke-width="1.5"></path><path d="M706.65 -54.97L706.65 -54.97" stroke="#132e65" stroke-width="1.5"></path><path d="M706.65 -54.97L811.84 -46.39" stroke="#132e65" stroke-width="1.5"></path><path d="M706.65 -54.97L703.95 52.8" stroke="#132e65" stroke-width="1.5"></path><path d="M706.65 -54.97L819.29 68.4" stroke="#132e65" stroke-width="1.5"></path><path d="M706.65 -54.97L553.92 50.01" stroke="#132e65" stroke-width="1.5"></path><path d="M703.95 52.8L703.95 52.8" stroke="#132e65" stroke-width="1.5"></path><path d="M703.95 52.8L703.22 159.03" stroke="#132e65" stroke-width="1.5"></path><path d="M703.95 52.8L819.29 68.4" stroke="#132e65" stroke-width="1.5"></path><path d="M703.95 52.8L811.84 -46.39" stroke="#132e65" stroke-width="1.5"></path><path d="M703.95 52.8L553.92 50.01" stroke="#132e65" stroke-width="1.5"></path><path d="M703.22 159.03L703.22 159.03" stroke="#132e65" stroke-width="1.5"></path><path d="M703.22 159.03L798.44 190.1" stroke="#132e65" stroke-width="1.5"></path><path d="M703.22 159.03L819.29 68.4" stroke="#132e65" stroke-width="1.5"></path><path d="M703.22 159.03L553.92 50.01" stroke="#132e65" stroke-width="1.5"></path><path d="M703.22 159.03L680.54 343.66" stroke="#132e65" stroke-width="1.5"></path><path d="M680.54 343.66L680.54 343.66" stroke="#132e65" stroke-width="1.5"></path><path d="M680.54 343.66L705.31 449.35" stroke="#132e65" stroke-width="1.5"></path><path d="M705.31 449.35L705.31 449.35" stroke="#132e65" stroke-width="1.5"></path><path d="M705.31 449.35L812.29 442" stroke="#132e65" stroke-width="1.5"></path><path d="M696.11 689.15L696.11 689.15" stroke="#132e65" stroke-width="1.5"></path><path d="M696.11 689.15L676.96 789.86" stroke="#132e65" stroke-width="1.5"></path><path d="M696.11 689.15L809.38 701.65" stroke="#132e65" stroke-width="1.5"></path><path d="M676.96 789.86L676.96 789.86" stroke="#132e65" stroke-width="1.5"></path><path d="M676.96 789.86L697.68 926.15" stroke="#132e65" stroke-width="1.5"></path><path d="M676.96 789.86L809.38 701.65" stroke="#132e65" stroke-width="1.5"></path><path d="M676.96 789.86L785.34 911.14" stroke="#132e65" stroke-width="1.5"></path><path d="M676.96 789.86L842.52 806.62" stroke="#132e65" stroke-width="1.5"></path><path d="M697.68 926.15L697.68 926.15" stroke="#132e65" stroke-width="1.5"></path><path d="M697.68 926.15L785.34 911.14" stroke="#132e65" stroke-width="1.5"></path><path d="M660.72 1040.69L660.72 1040.69" stroke="#132e65" stroke-width="1.5"></path><path d="M660.72 1040.69L697.68 926.15" stroke="#132e65" stroke-width="1.5"></path><path d="M660.72 1040.69L819.46 1064.76" stroke="#132e65" stroke-width="1.5"></path><path d="M660.72 1040.69L785.34 911.14" stroke="#132e65" stroke-width="1.5"></path><path d="M660.72 1040.69L437.17 1059.36" stroke="#132e65" stroke-width="1.5"></path><path d="M811.84 -46.39L811.84 -46.39" stroke="#132e65" stroke-width="1.5"></path><path d="M811.84 -46.39L819.29 68.4" stroke="#132e65" stroke-width="1.5"></path><path d="M811.84 -46.39L703.22 159.03" stroke="#132e65" stroke-width="1.5"></path><path d="M811.84 -46.39L798.44 190.1" stroke="#132e65" stroke-width="1.5"></path><path d="M811.84 -46.39L549.34 -68.3" stroke="#132e65" stroke-width="1.5"></path><path d="M819.29 68.4L819.29 68.4" stroke="#132e65" stroke-width="1.5"></path><path d="M819.29 68.4L798.44 190.1" stroke="#132e65" stroke-width="1.5"></path><path d="M798.44 190.1L798.44 190.1" stroke="#132e65" stroke-width="1.5"></path><path d="M798.44 190.1L806.36 325.55" stroke="#132e65" stroke-width="1.5"></path><path d="M798.44 190.1L703.95 52.8" stroke="#132e65" stroke-width="1.5"></path><path d="M798.44 190.1L680.54 343.66" stroke="#132e65" stroke-width="1.5"></path><path d="M806.36 325.55L806.36 325.55" stroke="#132e65" stroke-width="1.5"></path><path d="M806.36 325.55L812.29 442" stroke="#132e65" stroke-width="1.5"></path><path d="M806.36 325.55L680.54 343.66" stroke="#132e65" stroke-width="1.5"></path><path d="M812.29 442L812.29 442" stroke="#132e65" stroke-width="1.5"></path><path d="M812.29 442L843.4 545.93" stroke="#132e65" stroke-width="1.5"></path><path d="M812.29 442L680.54 343.66" stroke="#132e65" stroke-width="1.5"></path><path d="M812.29 442L576.22 414.76" stroke="#132e65" stroke-width="1.5"></path><path d="M812.29 442L798.44 190.1" stroke="#132e65" stroke-width="1.5"></path><path d="M843.4 545.93L843.4 545.93" stroke="#132e65" stroke-width="1.5"></path><path d="M843.4 545.93L809.38 701.65" stroke="#132e65" stroke-width="1.5"></path><path d="M843.4 545.93L705.31 449.35" stroke="#132e65" stroke-width="1.5"></path><path d="M843.4 545.93L696.11 689.15" stroke="#132e65" stroke-width="1.5"></path><path d="M843.4 545.93L806.36 325.55" stroke="#132e65" stroke-width="1.5"></path><path d="M843.4 545.93L680.54 343.66" stroke="#132e65" stroke-width="1.5"></path><path d="M809.38 701.65L809.38 701.65" stroke="#132e65" stroke-width="1.5"></path><path d="M809.38 701.65L842.52 806.62" stroke="#132e65" stroke-width="1.5"></path><path d="M842.52 806.62L842.52 806.62" stroke="#132e65" stroke-width="1.5"></path><path d="M842.52 806.62L785.34 911.14" stroke="#132e65" stroke-width="1.5"></path><path d="M785.34 911.14L785.34 911.14" stroke="#132e65" stroke-width="1.5"></path><path d="M785.34 911.14L819.46 1064.76" stroke="#132e65" stroke-width="1.5"></path><path d="M785.34 911.14L809.38 701.65" stroke="#132e65" stroke-width="1.5"></path><path d="M819.46 1064.76L819.46 1064.76" stroke="#132e65" stroke-width="1.5"></path><path d="M819.46 1064.76L697.68 926.15" stroke="#132e65" stroke-width="1.5"></path><path d="M819.46 1064.76L842.52 806.62" stroke="#132e65" stroke-width="1.5"></path><path d="M819.46 1064.76L554.14 1085.3" stroke="#132e65" stroke-width="1.5"></path><circle r="5" cx="-89.37" cy="702.95" fill="#132e65"></circle><circle r="5" cx="-92.55" cy="835.66" fill="#132e65"></circle><circle r="5" cx="-68.61" cy="916.65" fill="#132e65"></circle><circle r="5" cx="-35.29" cy="1075.85" fill="#132e65"></circle><circle r="5" cx="80.22" cy="665.59" fill="#132e65"></circle><circle r="5" cx="77.09" cy="955.01" fill="#132e65"></circle><circle r="5" cx="56.47" cy="1065.55" fill="#132e65"></circle><circle r="5" cx="215.59" cy="662.45" fill="#132e65"></circle><circle r="5" cx="170.64" cy="822.73" fill="#132e65"></circle><circle r="5" cx="195.88" cy="917.81" fill="#132e65"></circle><circle r="5" cx="188.59" cy="1065.23" fill="#132e65"></circle><circle r="5" cx="293.41" cy="460.3" fill="#132e65"></circle><circle r="5" cx="303.47" cy="542.55" fill="#132e65"></circle><circle r="5" cx="300.39" cy="796.96" fill="#132e65"></circle><circle r="5" cx="309.62" cy="935.87" fill="#132e65"></circle><circle r="5" cx="323.37" cy="1068.82" fill="#132e65"></circle><circle r="5" cx="441.87" cy="-31.38" fill="#132e65"></circle><circle r="5" cx="410.96" cy="169.99" fill="#132e65"></circle><circle r="5" cx="455.26" cy="320.08" fill="#132e65"></circle><circle r="5" cx="428.56" cy="451.73" fill="#132e65"></circle><circle r="5" cx="414.51" cy="572.54" fill="#132e65"></circle><circle r="5" cx="414" cy="782.57" fill="#132e65"></circle><circle r="5" cx="432.7" cy="955.29" fill="#132e65"></circle><circle r="5" cx="437.17" cy="1059.36" fill="#132e65"></circle><circle r="5" cx="549.34" cy="-68.3" fill="#132e65"></circle><circle r="5" cx="553.92" cy="50.01" fill="#132e65"></circle><circle r="5" cx="549.78" cy="167.55" fill="#132e65"></circle><circle r="5" cx="576.22" cy="414.76" fill="#132e65"></circle><circle r="5" cx="578.69" cy="546.76" fill="#132e65"></circle><circle r="5" cx="538.16" cy="659.88" fill="#132e65"></circle><circle r="5" cx="562.55" cy="784.63" fill="#132e65"></circle><circle r="5" cx="572.31" cy="922.9" fill="#132e65"></circle><circle r="5" cx="554.14" cy="1085.3" fill="#132e65"></circle><circle r="5" cx="706.65" cy="-54.97" fill="#132e65"></circle><circle r="5" cx="703.95" cy="52.8" fill="#132e65"></circle><circle r="5" cx="703.22" cy="159.03" fill="#132e65"></circle><circle r="5" cx="680.54" cy="343.66" fill="#132e65"></circle><circle r="5" cx="705.31" cy="449.35" fill="#132e65"></circle><circle r="5" cx="696.11" cy="689.15" fill="#132e65"></circle><circle r="5" cx="676.96" cy="789.86" fill="#132e65"></circle><circle r="5" cx="697.68" cy="926.15" fill="#132e65"></circle><circle r="5" cx="660.72" cy="1040.69" fill="#132e65"></circle><circle r="5" cx="811.84" cy="-46.39" fill="#132e65"></circle><circle r="5" cx="819.29" cy="68.4" fill="#132e65"></circle><circle r="5" cx="798.44" cy="190.1" fill="#132e65"></circle><circle r="5" cx="806.36" cy="325.55" fill="#132e65"></circle><circle r="5" cx="812.29" cy="442" fill="#132e65"></circle><circle r="5" cx="843.4" cy="545.93" fill="#132e65"></circle><circle r="5" cx="809.38" cy="701.65" fill="#132e65"></circle><circle r="5" cx="842.52" cy="806.62" fill="#132e65"></circle><circle r="5" cx="785.34" cy="911.14" fill="#132e65"></circle><circle r="5" cx="819.46" cy="1064.76" fill="#132e65"></circle><path d="M-67.71 968.4L-67.71 968.4" stroke="hsl(228.5, 77.2%, 51.5%)" stroke-width="1.5"></path><path d="M-67.71 968.4L-42.99 1053.59" stroke="hsl(228.5, 77.2%, 51.5%)" stroke-width="1.5"></path><path d="M36.78 967.5L36.78 967.5" stroke="hsl(228.5, 77.2%, 51.5%)" stroke-width="1.5"></path><path d="M36.78 967.5L44.95 1069.43" stroke="hsl(228.5, 77.2%, 51.5%)" stroke-width="1.5"></path><path d="M36.78 967.5L-67.71 968.4" stroke="hsl(228.5, 77.2%, 51.5%)" stroke-width="1.5"></path><path d="M36.78 967.5L-42.99 1053.59" stroke="hsl(228.5, 77.2%, 51.5%)" stroke-width="1.5"></path><path d="M36.78 967.5L170.56 958.69" stroke="hsl(228.5, 77.2%, 51.5%)" stroke-width="1.5"></path><path d="M36.78 967.5L-44.47 815.96" stroke="hsl(228.5, 77.2%, 51.5%)" stroke-width="1.5"></path><path d="M36.78 967.5L193.67 792.99" stroke="hsl(228.5, 77.2%, 51.5%)" stroke-width="1.5"></path><path d="M336.41 827.16L336.41 827.16" stroke="hsl(228.5, 77.2%, 51.5%)" stroke-width="1.5"></path><path d="M336.41 827.16L334.73 940.35" stroke="hsl(228.5, 77.2%, 51.5%)" stroke-width="1.5"></path><path d="M336.41 827.16L449.17 808.45" stroke="hsl(228.5, 77.2%, 51.5%)" stroke-width="1.5"></path><path d="M336.41 827.16L414.28 913.89" stroke="hsl(228.5, 77.2%, 51.5%)" stroke-width="1.5"></path><path d="M336.41 827.16L324.34 688.3" stroke="hsl(228.5, 77.2%, 51.5%)" stroke-width="1.5"></path><path d="M336.41 827.16L193.67 792.99" stroke="hsl(228.5, 77.2%, 51.5%)" stroke-width="1.5"></path><path d="M312.38 1032.79L312.38 1032.79" stroke="hsl(228.5, 77.2%, 51.5%)" stroke-width="1.5"></path><path d="M312.38 1032.79L334.73 940.35" stroke="hsl(228.5, 77.2%, 51.5%)" stroke-width="1.5"></path><path d="M312.38 1032.79L449.8 1093.07" stroke="hsl(228.5, 77.2%, 51.5%)" stroke-width="1.5"></path><path d="M312.38 1032.79L414.28 913.89" stroke="hsl(228.5, 77.2%, 51.5%)" stroke-width="1.5"></path><path d="M312.38 1032.79L170.56 958.69" stroke="hsl(228.5, 77.2%, 51.5%)" stroke-width="1.5"></path><path d="M822.26 336.75L822.26 336.75" stroke="hsl(228.5, 77.2%, 51.5%)" stroke-width="1.5"></path><path d="M822.26 336.75L795.71 416.57" stroke="hsl(228.5, 77.2%, 51.5%)" stroke-width="1.5"></path><path d="M822.26 336.75L672.84 323.12" stroke="hsl(228.5, 77.2%, 51.5%)" stroke-width="1.5"></path><path d="M822.26 336.75L689.43 420.43" stroke="hsl(228.5, 77.2%, 51.5%)" stroke-width="1.5"></path><path d="M822.26 336.75L781.29 174.87" stroke="hsl(228.5, 77.2%, 51.5%)" stroke-width="1.5"></path><path d="M822.26 336.75L658.94 179.81" stroke="hsl(228.5, 77.2%, 51.5%)" stroke-width="1.5"></path><path d="M822.26 336.75L798.47 564.73" stroke="hsl(228.5, 77.2%, 51.5%)" stroke-width="1.5"></path><path d="M798.47 564.73L798.47 564.73" stroke="hsl(228.5, 77.2%, 51.5%)" stroke-width="1.5"></path><path d="M798.47 564.73L786.16 693.87" stroke="hsl(228.5, 77.2%, 51.5%)" stroke-width="1.5"></path><path d="M798.47 564.73L697.93 657.5" stroke="hsl(228.5, 77.2%, 51.5%)" stroke-width="1.5"></path><path d="M798.47 564.73L657.98 586.34" stroke="hsl(228.5, 77.2%, 51.5%)" stroke-width="1.5"></path><path d="M798.47 564.73L795.71 416.57" stroke="hsl(228.5, 77.2%, 51.5%)" stroke-width="1.5"></path><path d="M798.47 564.73L689.43 420.43" stroke="hsl(228.5, 77.2%, 51.5%)" stroke-width="1.5"></path><path d="M811.25 954.83L811.25 954.83" stroke="hsl(228.5, 77.2%, 51.5%)" stroke-width="1.5"></path><path d="M811.25 954.83L718.21 929.89" stroke="hsl(228.5, 77.2%, 51.5%)" stroke-width="1.5"></path><path d="M811.25 954.83L836.45 1083.6" stroke="hsl(228.5, 77.2%, 51.5%)" stroke-width="1.5"></path><path d="M-44.47 815.96L-44.47 815.96" stroke="hsl(228.5, 77.2%, 51.5%)" stroke-width="1.5"></path><path d="M-44.47 815.96L-67.71 968.4" stroke="hsl(228.5, 77.2%, 51.5%)" stroke-width="1.5"></path><path d="M-44.47 815.96L-42.99 1053.59" stroke="hsl(228.5, 77.2%, 51.5%)" stroke-width="1.5"></path><path d="M-44.47 815.96L193.67 792.99" stroke="hsl(228.5, 77.2%, 51.5%)" stroke-width="1.5"></path><path d="M-44.47 815.96L170.56 958.69" stroke="hsl(228.5, 77.2%, 51.5%)" stroke-width="1.5"></path><path d="M-42.99 1053.59L-42.99 1053.59" stroke="hsl(228.5, 77.2%, 51.5%)" stroke-width="1.5"></path><path d="M-42.99 1053.59L44.95 1069.43" stroke="hsl(228.5, 77.2%, 51.5%)" stroke-width="1.5"></path><path d="M-42.99 1053.59L170.56 958.69" stroke="hsl(228.5, 77.2%, 51.5%)" stroke-width="1.5"></path><path d="M-42.99 1053.59L193.67 792.99" stroke="hsl(228.5, 77.2%, 51.5%)" stroke-width="1.5"></path><path d="M44.95 1069.43L44.95 1069.43" stroke="hsl(228.5, 77.2%, 51.5%)" stroke-width="1.5"></path><path d="M44.95 1069.43L-67.71 968.4" stroke="hsl(228.5, 77.2%, 51.5%)" stroke-width="1.5"></path><path d="M44.95 1069.43L170.56 958.69" stroke="hsl(228.5, 77.2%, 51.5%)" stroke-width="1.5"></path><path d="M44.95 1069.43L-44.47 815.96" stroke="hsl(228.5, 77.2%, 51.5%)" stroke-width="1.5"></path><path d="M44.95 1069.43L312.38 1032.79" stroke="hsl(228.5, 77.2%, 51.5%)" stroke-width="1.5"></path><path d="M193.67 792.99L193.67 792.99" stroke="hsl(228.5, 77.2%, 51.5%)" stroke-width="1.5"></path><path d="M193.67 792.99L170.56 958.69" stroke="hsl(228.5, 77.2%, 51.5%)" stroke-width="1.5"></path><path d="M170.56 958.69L170.56 958.69" stroke="hsl(228.5, 77.2%, 51.5%)" stroke-width="1.5"></path><path d="M170.56 958.69L334.73 940.35" stroke="hsl(228.5, 77.2%, 51.5%)" stroke-width="1.5"></path><path d="M324.34 688.3L324.34 688.3" stroke="hsl(228.5, 77.2%, 51.5%)" stroke-width="1.5"></path><path d="M324.34 688.3L418.75 658.91" stroke="hsl(228.5, 77.2%, 51.5%)" stroke-width="1.5"></path><path d="M324.34 688.3L193.67 792.99" stroke="hsl(228.5, 77.2%, 51.5%)" stroke-width="1.5"></path><path d="M324.34 688.3L449.17 808.45" stroke="hsl(228.5, 77.2%, 51.5%)" stroke-width="1.5"></path><path d="M324.34 688.3L458.92 533.64" stroke="hsl(228.5, 77.2%, 51.5%)" stroke-width="1.5"></path><path d="M324.34 688.3L414.28 913.89" stroke="hsl(228.5, 77.2%, 51.5%)" stroke-width="1.5"></path><path d="M334.73 940.35L334.73 940.35" stroke="hsl(228.5, 77.2%, 51.5%)" stroke-width="1.5"></path><path d="M334.73 940.35L414.28 913.89" stroke="hsl(228.5, 77.2%, 51.5%)" stroke-width="1.5"></path><path d="M458.92 533.64L458.92 533.64" stroke="hsl(228.5, 77.2%, 51.5%)" stroke-width="1.5"></path><path d="M458.92 533.64L555.28 535.34" stroke="hsl(228.5, 77.2%, 51.5%)" stroke-width="1.5"></path><path d="M458.92 533.64L418.75 658.91" stroke="hsl(228.5, 77.2%, 51.5%)" stroke-width="1.5"></path><path d="M458.92 533.64L582.07 423.88" stroke="hsl(228.5, 77.2%, 51.5%)" stroke-width="1.5"></path><path d="M458.92 533.64L590.47 659.57" stroke="hsl(228.5, 77.2%, 51.5%)" stroke-width="1.5"></path><path d="M458.92 533.64L657.98 586.34" stroke="hsl(228.5, 77.2%, 51.5%)" stroke-width="1.5"></path><path d="M418.75 658.91L418.75 658.91" stroke="hsl(228.5, 77.2%, 51.5%)" stroke-width="1.5"></path><path d="M449.17 808.45L449.17 808.45" stroke="hsl(228.5, 77.2%, 51.5%)" stroke-width="1.5"></path><path d="M449.17 808.45L414.28 913.89" stroke="hsl(228.5, 77.2%, 51.5%)" stroke-width="1.5"></path><path d="M449.17 808.45L575.05 832.5" stroke="hsl(228.5, 77.2%, 51.5%)" stroke-width="1.5"></path><path d="M449.17 808.45L418.75 658.91" stroke="hsl(228.5, 77.2%, 51.5%)" stroke-width="1.5"></path><path d="M414.28 913.89L414.28 913.89" stroke="hsl(228.5, 77.2%, 51.5%)" stroke-width="1.5"></path><path d="M449.8 1093.07L449.8 1093.07" stroke="hsl(228.5, 77.2%, 51.5%)" stroke-width="1.5"></path><path d="M449.8 1093.07L555.69 1077.96" stroke="hsl(228.5, 77.2%, 51.5%)" stroke-width="1.5"></path><path d="M449.8 1093.07L564.2 951.15" stroke="hsl(228.5, 77.2%, 51.5%)" stroke-width="1.5"></path><path d="M449.8 1093.07L414.28 913.89" stroke="hsl(228.5, 77.2%, 51.5%)" stroke-width="1.5"></path><path d="M449.8 1093.07L334.73 940.35" stroke="hsl(228.5, 77.2%, 51.5%)" stroke-width="1.5"></path><path d="M449.8 1093.07L691.84 1051.59" stroke="hsl(228.5, 77.2%, 51.5%)" stroke-width="1.5"></path><path d="M572.61 34.16L572.61 34.16" stroke="hsl(228.5, 77.2%, 51.5%)" stroke-width="1.5"></path><path d="M572.61 34.16L687.11 36.66" stroke="hsl(228.5, 77.2%, 51.5%)" stroke-width="1.5"></path><path d="M572.61 34.16L677.87 -76.7" stroke="hsl(228.5, 77.2%, 51.5%)" stroke-width="1.5"></path><path d="M572.61 34.16L658.94 179.81" stroke="hsl(228.5, 77.2%, 51.5%)" stroke-width="1.5"></path><path d="M572.61 34.16L787.81 64.71" stroke="hsl(228.5, 77.2%, 51.5%)" stroke-width="1.5"></path><path d="M572.61 34.16L781.29 174.87" stroke="hsl(228.5, 77.2%, 51.5%)" stroke-width="1.5"></path><path d="M572.61 34.16L535.93 284" stroke="hsl(228.5, 77.2%, 51.5%)" stroke-width="1.5"></path><path d="M535.93 284L535.93 284" stroke="hsl(228.5, 77.2%, 51.5%)" stroke-width="1.5"></path><path d="M535.93 284L672.84 323.12" stroke="hsl(228.5, 77.2%, 51.5%)" stroke-width="1.5"></path><path d="M535.93 284L582.07 423.88" stroke="hsl(228.5, 77.2%, 51.5%)" stroke-width="1.5"></path><path d="M582.07 423.88L582.07 423.88" stroke="hsl(228.5, 77.2%, 51.5%)" stroke-width="1.5"></path><path d="M582.07 423.88L689.43 420.43" stroke="hsl(228.5, 77.2%, 51.5%)" stroke-width="1.5"></path><path d="M582.07 423.88L555.28 535.34" stroke="hsl(228.5, 77.2%, 51.5%)" stroke-width="1.5"></path><path d="M582.07 423.88L672.84 323.12" stroke="hsl(228.5, 77.2%, 51.5%)" stroke-width="1.5"></path><path d="M582.07 423.88L657.98 586.34" stroke="hsl(228.5, 77.2%, 51.5%)" stroke-width="1.5"></path><path d="M555.28 535.34L555.28 535.34" stroke="hsl(228.5, 77.2%, 51.5%)" stroke-width="1.5"></path><path d="M555.28 535.34L657.98 586.34" stroke="hsl(228.5, 77.2%, 51.5%)" stroke-width="1.5"></path><path d="M555.28 535.34L590.47 659.57" stroke="hsl(228.5, 77.2%, 51.5%)" stroke-width="1.5"></path><path d="M590.47 659.57L590.47 659.57" stroke="hsl(228.5, 77.2%, 51.5%)" stroke-width="1.5"></path><path d="M590.47 659.57L657.98 586.34" stroke="hsl(228.5, 77.2%, 51.5%)" stroke-width="1.5"></path><path d="M590.47 659.57L697.93 657.5" stroke="hsl(228.5, 77.2%, 51.5%)" stroke-width="1.5"></path><path d="M590.47 659.57L418.75 658.91" stroke="hsl(228.5, 77.2%, 51.5%)" stroke-width="1.5"></path><path d="M575.05 832.5L575.05 832.5" stroke="hsl(228.5, 77.2%, 51.5%)" stroke-width="1.5"></path><path d="M575.05 832.5L564.2 951.15" stroke="hsl(228.5, 77.2%, 51.5%)" stroke-width="1.5"></path><path d="M564.2 951.15L564.2 951.15" stroke="hsl(228.5, 77.2%, 51.5%)" stroke-width="1.5"></path><path d="M564.2 951.15L555.69 1077.96" stroke="hsl(228.5, 77.2%, 51.5%)" stroke-width="1.5"></path><path d="M564.2 951.15L414.28 913.89" stroke="hsl(228.5, 77.2%, 51.5%)" stroke-width="1.5"></path><path d="M555.69 1077.96L555.69 1077.96" stroke="hsl(228.5, 77.2%, 51.5%)" stroke-width="1.5"></path><path d="M555.69 1077.96L691.84 1051.59" stroke="hsl(228.5, 77.2%, 51.5%)" stroke-width="1.5"></path><path d="M677.87 -76.7L677.87 -76.7" stroke="hsl(228.5, 77.2%, 51.5%)" stroke-width="1.5"></path><path d="M677.87 -76.7L687.11 36.66" stroke="hsl(228.5, 77.2%, 51.5%)" stroke-width="1.5"></path><path d="M677.87 -76.7L835.01 -85.15" stroke="hsl(228.5, 77.2%, 51.5%)" stroke-width="1.5"></path><path d="M677.87 -76.7L787.81 64.71" stroke="hsl(228.5, 77.2%, 51.5%)" stroke-width="1.5"></path><path d="M677.87 -76.7L658.94 179.81" stroke="hsl(228.5, 77.2%, 51.5%)" stroke-width="1.5"></path><path d="M677.87 -76.7L781.29 174.87" stroke="hsl(228.5, 77.2%, 51.5%)" stroke-width="1.5"></path><path d="M687.11 36.66L687.11 36.66" stroke="hsl(228.5, 77.2%, 51.5%)" stroke-width="1.5"></path><path d="M687.11 36.66L787.81 64.71" stroke="hsl(228.5, 77.2%, 51.5%)" stroke-width="1.5"></path><path d="M658.94 179.81L658.94 179.81" stroke="hsl(228.5, 77.2%, 51.5%)" stroke-width="1.5"></path><path d="M658.94 179.81L781.29 174.87" stroke="hsl(228.5, 77.2%, 51.5%)" stroke-width="1.5"></path><path d="M658.94 179.81L672.84 323.12" stroke="hsl(228.5, 77.2%, 51.5%)" stroke-width="1.5"></path><path d="M672.84 323.12L672.84 323.12" stroke="hsl(228.5, 77.2%, 51.5%)" stroke-width="1.5"></path><path d="M672.84 323.12L689.43 420.43" stroke="hsl(228.5, 77.2%, 51.5%)" stroke-width="1.5"></path><path d="M689.43 420.43L689.43 420.43" stroke="hsl(228.5, 77.2%, 51.5%)" stroke-width="1.5"></path><path d="M689.43 420.43L795.71 416.57" stroke="hsl(228.5, 77.2%, 51.5%)" stroke-width="1.5"></path><path d="M657.98 586.34L657.98 586.34" stroke="hsl(228.5, 77.2%, 51.5%)" stroke-width="1.5"></path><path d="M657.98 586.34L697.93 657.5" stroke="hsl(228.5, 77.2%, 51.5%)" stroke-width="1.5"></path><path d="M657.98 586.34L786.16 693.87" stroke="hsl(228.5, 77.2%, 51.5%)" stroke-width="1.5"></path><path d="M657.98 586.34L689.43 420.43" stroke="hsl(228.5, 77.2%, 51.5%)" stroke-width="1.5"></path><path d="M697.93 657.5L697.93 657.5" stroke="hsl(228.5, 77.2%, 51.5%)" stroke-width="1.5"></path><path d="M697.93 657.5L786.16 693.87" stroke="hsl(228.5, 77.2%, 51.5%)" stroke-width="1.5"></path><path d="M718.21 929.89L718.21 929.89" stroke="hsl(228.5, 77.2%, 51.5%)" stroke-width="1.5"></path><path d="M718.21 929.89L691.84 1051.59" stroke="hsl(228.5, 77.2%, 51.5%)" stroke-width="1.5"></path><path d="M718.21 929.89L564.2 951.15" stroke="hsl(228.5, 77.2%, 51.5%)" stroke-width="1.5"></path><path d="M718.21 929.89L575.05 832.5" stroke="hsl(228.5, 77.2%, 51.5%)" stroke-width="1.5"></path><path d="M718.21 929.89L836.45 1083.6" stroke="hsl(228.5, 77.2%, 51.5%)" stroke-width="1.5"></path><path d="M718.21 929.89L555.69 1077.96" stroke="hsl(228.5, 77.2%, 51.5%)" stroke-width="1.5"></path><path d="M691.84 1051.59L691.84 1051.59" stroke="hsl(228.5, 77.2%, 51.5%)" stroke-width="1.5"></path><path d="M691.84 1051.59L836.45 1083.6" stroke="hsl(228.5, 77.2%, 51.5%)" stroke-width="1.5"></path><path d="M691.84 1051.59L811.25 954.83" stroke="hsl(228.5, 77.2%, 51.5%)" stroke-width="1.5"></path><path d="M691.84 1051.59L564.2 951.15" stroke="hsl(228.5, 77.2%, 51.5%)" stroke-width="1.5"></path><path d="M835.01 -85.15L835.01 -85.15" stroke="hsl(228.5, 77.2%, 51.5%)" stroke-width="1.5"></path><path d="M835.01 -85.15L787.81 64.71" stroke="hsl(228.5, 77.2%, 51.5%)" stroke-width="1.5"></path><path d="M835.01 -85.15L687.11 36.66" stroke="hsl(228.5, 77.2%, 51.5%)" stroke-width="1.5"></path><path d="M835.01 -85.15L781.29 174.87" stroke="hsl(228.5, 77.2%, 51.5%)" stroke-width="1.5"></path><path d="M787.81 64.71L787.81 64.71" stroke="hsl(228.5, 77.2%, 51.5%)" stroke-width="1.5"></path><path d="M787.81 64.71L781.29 174.87" stroke="hsl(228.5, 77.2%, 51.5%)" stroke-width="1.5"></path><path d="M781.29 174.87L781.29 174.87" stroke="hsl(228.5, 77.2%, 51.5%)" stroke-width="1.5"></path><path d="M795.71 416.57L795.71 416.57" stroke="hsl(228.5, 77.2%, 51.5%)" stroke-width="1.5"></path><path d="M786.16 693.87L786.16 693.87" stroke="hsl(228.5, 77.2%, 51.5%)" stroke-width="1.5"></path><path d="M836.45 1083.6L836.45 1083.6" stroke="hsl(228.5, 77.2%, 51.5%)" stroke-width="1.5"></path><path d="M836.45 1083.6L555.69 1077.96" stroke="hsl(228.5, 77.2%, 51.5%)" stroke-width="1.5"></path><path d="M836.45 1083.6L564.2 951.15" stroke="hsl(228.5, 77.2%, 51.5%)" stroke-width="1.5"></path><circle r="25" cx="-67.71" cy="968.4" fill="url(#SvgjsRadialGradient1511)"></circle><circle r="25" cx="36.78" cy="967.5" fill="url(#SvgjsRadialGradient1511)"></circle><circle r="25" cx="336.41" cy="827.16" fill="url(#SvgjsRadialGradient1511)"></circle><circle r="25" cx="312.38" cy="1032.79" fill="url(#SvgjsRadialGradient1511)"></circle><circle r="25" cx="822.26" cy="336.75" fill="url(#SvgjsRadialGradient1511)"></circle><circle r="25" cx="798.47" cy="564.73" fill="url(#SvgjsRadialGradient1511)"></circle><circle r="25" cx="811.25" cy="954.83" fill="url(#SvgjsRadialGradient1511)"></circle><circle r="5" cx="-44.47" cy="815.96" fill="#8b9ad9"></circle><circle r="5" cx="-42.99" cy="1053.59" fill="#8b9ad9"></circle><circle r="5" cx="44.95" cy="1069.43" fill="#8b9ad9"></circle><circle r="5" cx="193.67" cy="792.99" fill="#8b9ad9"></circle><circle r="5" cx="170.56" cy="958.69" fill="#8b9ad9"></circle><circle r="5" cx="324.34" cy="688.3" fill="#8b9ad9"></circle><circle r="5" cx="334.73" cy="940.35" fill="#8b9ad9"></circle><circle r="5" cx="458.92" cy="533.64" fill="#8b9ad9"></circle><circle r="5" cx="418.75" cy="658.91" fill="#8b9ad9"></circle><circle r="5" cx="449.17" cy="808.45" fill="#8b9ad9"></circle><circle r="5" cx="414.28" cy="913.89" fill="#8b9ad9"></circle><circle r="5" cx="449.8" cy="1093.07" fill="#8b9ad9"></circle><circle r="5" cx="572.61" cy="34.16" fill="#8b9ad9"></circle><circle r="5" cx="535.93" cy="284" fill="#8b9ad9"></circle><circle r="5" cx="582.07" cy="423.88" fill="#8b9ad9"></circle><circle r="5" cx="555.28" cy="535.34" fill="#8b9ad9"></circle><circle r="5" cx="590.47" cy="659.57" fill="#8b9ad9"></circle><circle r="5" cx="575.05" cy="832.5" fill="#8b9ad9"></circle><circle r="5" cx="564.2" cy="951.15" fill="#8b9ad9"></circle><circle r="5" cx="555.69" cy="1077.96" fill="#8b9ad9"></circle><circle r="5" cx="677.87" cy="-76.7" fill="#8b9ad9"></circle><circle r="5" cx="687.11" cy="36.66" fill="#8b9ad9"></circle><circle r="5" cx="658.94" cy="179.81" fill="#8b9ad9"></circle><circle r="5" cx="672.84" cy="323.12" fill="#8b9ad9"></circle><circle r="5" cx="689.43" cy="420.43" fill="#8b9ad9"></circle><circle r="5" cx="657.98" cy="586.34" fill="#8b9ad9"></circle><circle r="5" cx="697.93" cy="657.5" fill="#8b9ad9"></circle><circle r="5" cx="718.21" cy="929.89" fill="#8b9ad9"></circle><circle r="5" cx="691.84" cy="1051.59" fill="#8b9ad9"></circle><circle r="5" cx="835.01" cy="-85.15" fill="#8b9ad9"></circle><circle r="5" cx="787.81" cy="64.71" fill="#8b9ad9"></circle><circle r="5" cx="781.29" cy="174.87" fill="#8b9ad9"></circle><circle r="5" cx="795.71" cy="416.57" fill="#8b9ad9"></circle><circle r="5" cx="786.16" cy="693.87" fill="#8b9ad9"></circle><circle r="5" cx="836.45" cy="1083.6" fill="#8b9ad9"></circle></g><defs><mask id="SvgjsMask1509"><rect width="690" height="1000" fill="#ffffff"></rect></mask><linearGradient x1="-11.23%" y1="7.75%" x2="111.23%" y2="92.25%" gradientUnits="userSpaceOnUse" id="SvgjsLinearGradient1510"><stop stop-color="#0e2a47" offset="0"></stop><stop stop-color="rgba(15, 36, 62, 1)" offset="1"></stop></linearGradient><radialGradient id="SvgjsRadialGradient1511"><stop stop-color="#ffffff" offset="0.1"></stop><stop stop-color="#1735b3" offset="0.2"></stop><stop stop-color="rgba(23, 53, 179, 0)" offset="1"></stop></radialGradient></defs></svg>